<svg width="1e3mm" height="152mm" version="1.1" viewBox="0 0 1e3 152" xmlns="http://www.w3.org/2000/svg"><g transform="translate(-157 -97.6)" stroke-width="1.19"><path d="m157 249h31.9v-50.8l-31.9-31.9zm90-151v81.1l-82.3-82.1h-7.75v37.4l114 114h7.75v-151z"/><path d="m302 98.5v151h31.9v-151z"/><path d="m473 189-1.6 3.42c-7.29 15-22.6 24.6-39.2 24.6-20.5 0-38.5-14.6-42.6-34.6-0.684-2.74-0.912-5.93-0.912-8.89s0.228-5.7 0.912-8.66c3.88-20.3 21.9-34.9 42.6-34.9 17.6 0 33.3 10.5 40.1 26.4l1.6 3.65h33.1l-2.28-7.52c-4.33-15.5-13.9-29.4-26.7-39.2-13.2-10-29.2-15.3-45.8-15.3-18.2 0-36 6.61-49.7 18.7-13.7 11.9-22.6 28.3-25.1 46-0.456 3.65-0.684 7.07-0.684 10.7s0.228 7.52 0.684 11.2c2.51 17.8 11.6 34 25.1 45.8 13.9 12.1 31.5 18.5 49.7 18.5 16.2 0 31.7-5.01 44.9-14.6 12.8-9.57 22.1-22.3 26.9-37.4l2.51-7.98z"/><path d="m605 99.2c-41.5 0-75 33.7-75 75 0 41.5 33.5 75 75 75 41.3 0 75-33.5 75-75 0-41.3-33.7-75-75-75zm43.5 75c0 24.2-19.6 43.8-43.5 43.8-24.2 0-43.8-19.6-43.8-43.8 0-23.9 19.6-43.5 43.8-43.5 23.9 0 43.5 19.6 43.5 43.5z"/><path d="m703 249h31.9v-50.8l-31.9-31.9zm90-151v81.1l-82.3-82.1h-7.75v37.4l114 114h7.75v-151z"/><path d="m950 98.3-1.82 2.51-33.7 46-33.7-46-1.82-2.51h-39.4l6.84 9.57 49.5 67.5 1.37 2.05h0.228v0.228l1.14 1.6v70h31.9v-70.2l1.14-1.37v-0.228h0.228l1.37-2.05 49.5-67.5 6.84-9.57z"/><path d="m1010 240-6.84 9.35h39.7l1.82-2.28 21.7-29.6-19.8-26.9zm140 0-50.1-68.4 46.7-63.1 6.84-9.57h-39.7l-1.82 2.28-31.9 43.5-31.9-43.5-1.82-2.28h-39.9l7.07 9.35 46.7 63.4v0.228l19.8 26.9 15.3 20.7 20.3 27.6 1.82 2.28h39.7z"/></g></svg>
